<?xml version="1.0" standalone="no"?>
<!DOCTYPE svg PUBLIC "-//W3C//DTD SVG 20010904//EN"
 "http://www.w3.org/TR/2001/REC-SVG-20010904/DTD/svg10.dtd">
<svg version="1.0" xmlns="http://www.w3.org/2000/svg"
 width="232.000000pt" height="232.000000pt" viewBox="0 0 232.000000 232.000000"
 preserveAspectRatio="xMidYMid meet">
<metadata>
Created by potrace 1.14, written by Peter Selinger 2001-2017
</metadata>
<g transform="translate(0.000000,232.000000) scale(0.100000,-0.100000)"
fill="#000000" stroke="none">
<path d="M1105 2283 c-280 -17 -547 -137 -742 -332 -165 -166 -271 -367 -318
-606 -20 -100 -13 -356 13 -450 88 -323 253 -547 523 -713 293 -179 657 -210
990 -84 192 73 398 236 518 412 265 387 266 884 4 1282 -58 87 -195 225 -288
288 -95 64 -213 122 -310 153 -108 33 -284 56 -390 50z m-92 -199 l96 -59 1
-210 0 -210 -47 -32 c-27 -18 -110 -77 -186 -132 l-138 -100 -37 14 c-58 22
-326 105 -339 105 -6 0 -14 8 -17 18 -5 16 -33 137 -41 175 -2 10 -7 27 -10
38 -15 45 160 234 296 321 118 75 264 140 305 134 11 -1 64 -29 117 -62z m470
51 c174 -53 375 -197 501 -361 l46 -61 -20 -84 c-12 -46 -23 -95 -26 -109 -10
-50 -15 -55 -76 -74 -35 -11 -121 -39 -193 -62 -153 -49 -110 -62 -346 107
l-158 114 2 210 2 209 100 63 c55 34 105 62 110 63 6 0 32 -7 58 -15z m-972
-820 c96 -31 181 -60 189 -64 18 -10 155 -425 146 -443 -3 -7 -27 -40 -51 -73
-25 -33 -61 -82 -81 -110 -101 -144 -97 -140 -145 -141 -24 0 -80 3 -124 6
-76 7 -80 8 -113 46 -51 59 -134 219 -158 304 -25 87 -44 211 -44 285 l0 90
92 78 c51 42 98 77 104 77 6 0 89 -25 185 -55z m1524 29 c17 -14 59 -49 94
-77 l64 -52 -6 -120 c-7 -129 -31 -232 -84 -361 -34 -83 -115 -209 -147 -228
-12 -8 -67 -16 -133 -19 l-112 -6 -23 29 c-13 16 -34 45 -48 65 -14 20 -36 51
-50 70 -14 19 -36 50 -50 70 -14 20 -35 49 -47 65 -13 15 -23 34 -23 41 1 8
31 106 68 219 l68 205 99 33 c147 49 279 91 290 91 6 1 24 -11 40 -25z m-526
-754 l120 -169 -35 -88 c-58 -146 -60 -149 -101 -161 -121 -34 -205 -46 -328
-47 -136 0 -171 4 -270 29 -112 30 -109 26 -159 154 -39 97 -44 119 -33 133 6
10 61 86 120 168 l108 151 229 0 228 0 121 -170z"/>
</g>
</svg>
