<?xml version="1.0" standalone="no"?>
<!DOCTYPE svg PUBLIC "-//W3C//DTD SVG 20010904//EN"
 "http://www.w3.org/TR/2001/REC-SVG-20010904/DTD/svg10.dtd">
<svg version="1.0" xmlns="http://www.w3.org/2000/svg"
 width="232.000000pt" height="232.000000pt" viewBox="0 0 232.000000 232.000000"
 preserveAspectRatio="xMidYMid meet">
<metadata>
Created by potrace 1.14, written by Peter Selinger 2001-2017
</metadata>
<g transform="translate(0.000000,232.000000) scale(0.100000,-0.100000)"
fill="#000000" stroke="none">
<path d="M1067 2274 c-1 -1 -25 -5 -52 -8 -28 -3 -66 -8 -85 -12 -56 -9 -233
-72 -242 -86 -4 -7 -8 -9 -8 -5 0 5 -28 -7 -62 -25 -62 -32 -75 -40 -103 -65
-7 -7 -16 -13 -19 -13 -10 0 -46 -32 -120 -106 -84 -85 -96 -99 -96 -115 0 -7
-3 -10 -6 -6 -18 18 -181 -291 -175 -330 1 -7 -2 -13 -6 -13 -5 0 -10 -12 -11
-26 -1 -14 -5 -31 -9 -37 -4 -7 -8 -14 -8 -17 -1 -3 -5 -27 -10 -55 -14 -79
-15 -94 -16 -195 -1 -87 5 -175 15 -225 12 -61 39 -152 48 -162 6 -7 7 -13 4
-13 -4 0 -1 -12 7 -27 8 -16 25 -52 38 -80 13 -29 27 -53 32 -53 4 0 7 -6 7
-14 0 -8 7 -22 16 -30 8 -9 12 -16 7 -16 -4 0 -3 -4 2 -8 6 -4 29 -32 51 -62
51 -68 101 -120 115 -120 5 0 7 -4 4 -10 -3 -5 -3 -10 2 -10 7 0 20 -10 90
-70 12 -10 24 -16 27 -13 3 4 6 1 6 -6 0 -7 4 -9 10 -6 5 3 10 0 10 -8 0 -7
17 -22 38 -33 198 -99 271 -130 335 -139 18 -2 43 -7 57 -10 88 -22 299 -22
405 -1 114 23 335 107 335 127 0 5 3 8 8 7 12 -3 62 24 62 34 0 4 5 8 11 8 19
0 199 149 199 165 0 3 14 18 31 35 18 16 28 30 24 30 -5 0 -2 6 6 13 53 43
178 275 195 361 2 10 8 33 13 50 40 124 46 400 10 492 -4 12 -5 24 -2 27 3 3
1 12 -3 19 -5 7 -9 18 -11 23 -10 46 -12 56 -17 63 -3 5 -7 20 -9 33 -7 34
-43 111 -89 188 -21 34 -38 66 -38 70 0 3 -14 20 -30 38 -17 18 -30 35 -30 39
0 13 -182 183 -226 211 -156 101 -320 165 -479 188 -50 7 -252 14 -258 9z
m-56 -185 c42 -27 81 -49 87 -49 15 0 14 12 17 -232 l2 -206 -23 -13 c-13 -7
-24 -16 -24 -21 0 -4 -5 -8 -10 -8 -6 0 -16 -5 -23 -10 -7 -6 -43 -34 -82 -61
-79 -57 -113 -82 -163 -121 -42 -33 -52 -34 -128 -7 -32 11 -66 22 -74 24 -8
2 -44 13 -80 25 -36 12 -70 23 -77 24 -7 1 -16 5 -19 9 -4 4 -15 7 -24 7 -25
0 -49 22 -54 50 -2 14 -12 52 -21 85 -24 88 -27 99 -27 110 -1 17 6 39 17 51
6 7 24 29 40 49 26 33 55 62 160 163 13 12 27 22 30 22 3 0 26 15 52 34 72 50
156 93 236 120 81 27 70 30 188 -45z m519 34 c8 -3 17 -7 20 -8 21 -7 66 -31
72 -40 4 -5 8 -7 8 -2 0 4 18 -4 40 -18 22 -14 44 -25 49 -25 5 0 11 -4 13 -8
2 -5 20 -20 41 -34 47 -32 152 -132 192 -184 17 -21 37 -46 46 -55 15 -15 19
-75 7 -119 -2 -8 -13 -48 -24 -89 -17 -67 -22 -75 -56 -92 -21 -11 -38 -17
-38 -14 0 3 -16 -1 -35 -9 -19 -8 -35 -12 -35 -8 0 3 -5 1 -12 -6 -7 -7 -20
-12 -29 -12 -10 0 -30 -5 -46 -12 -15 -6 -32 -12 -38 -13 -5 -2 -34 -10 -62
-20 -61 -20 -91 -15 -124 20 -13 13 -29 25 -36 25 -7 0 -16 6 -20 13 -4 7 -34
30 -65 51 -32 21 -66 47 -77 57 -10 10 -22 15 -25 12 -3 -4 -6 -2 -6 3 0 5
-18 20 -40 34 -24 15 -41 33 -41 45 -1 11 -2 107 -3 213 l-1 193 108 69 108
68 47 -14 c26 -8 54 -17 62 -21z m-1164 -758 c19 -8 38 -14 42 -15 9 -1 163
-49 182 -57 8 -3 22 -8 30 -10 8 -2 22 -5 30 -8 8 -2 15 -4 15 -5 0 -1 8 -3
19 -5 10 -2 22 -7 27 -12 9 -9 135 -385 140 -418 4 -21 -29 -85 -43 -85 -4 0
-8 -7 -8 -15 0 -8 -3 -15 -7 -15 -5 0 -24 -24 -43 -53 -19 -28 -38 -54 -41
-57 -3 -3 -27 -35 -53 -73 -26 -37 -51 -65 -56 -62 -4 2 -59 7 -121 10 -122 6
-116 4 -169 72 -53 68 -138 253 -155 338 -2 6 -8 35 -14 66 -7 31 -14 101 -16
156 -4 98 -4 100 20 113 13 7 22 16 20 20 -2 4 7 12 20 18 14 7 25 16 25 22 0
5 7 10 16 10 8 0 12 5 9 10 -3 6 -1 10 4 10 6 0 19 8 30 19 16 16 50 40 59 41
1 0 18 -7 38 -15z m1671 -13 c10 -10 47 -41 83 -71 36 -29 69 -60 73 -67 13
-23 10 -108 -8 -229 -11 -71 -56 -207 -94 -284 -76 -153 -123 -211 -173 -212
-74 -2 -184 -9 -195 -13 -6 -3 -22 9 -35 26 -13 17 -30 38 -38 47 -8 9 -21 28
-28 42 -12 23 -30 46 -72 97 -6 6 -8 12 -5 12 3 0 -3 10 -14 22 -12 12 -32 38
-46 58 l-26 38 31 93 c18 52 33 101 35 109 2 8 4 15 5 15 1 0 3 7 5 15 7 28
47 145 62 178 8 18 21 32 31 32 10 0 23 5 30 12 7 7 12 9 12 5 0 -4 31 5 69
18 38 14 73 25 79 25 6 0 23 5 39 12 33 13 49 18 86 25 15 3 29 9 32 13 7 11
40 1 62 -18z m-561 -707 c47 -66 101 -142 121 -168 35 -47 36 -49 23 -90 -7
-23 -25 -70 -40 -104 -16 -35 -27 -63 -24 -63 2 0 -4 -9 -13 -20 -16 -18 -111
-53 -173 -64 -14 -3 -25 -5 -25 -6 0 -6 -108 -12 -190 -11 -147 1 -195 5 -195
14 0 5 -6 7 -12 4 -7 -2 -20 -1 -29 4 -9 4 -27 10 -40 12 -82 15 -106 39 -140
140 -7 20 -17 37 -23 37 -5 0 -7 3 -3 6 3 4 0 22 -8 41 -19 45 -19 58 1 77 8
9 12 16 8 16 -4 0 5 12 20 26 14 15 36 43 48 63 12 20 25 38 28 41 4 3 24 30
45 60 21 30 46 66 55 80 l18 25 231 0 232 0 85 -120z"/>
</g>
</svg>
